<?xml version="1.0" encoding="UTF-8"?>
<svg id="Calque_1" data-name="Calque 1" xmlns="http://www.w3.org/2000/svg" viewBox="0 0 418.56 152">
  <defs>
    <style>
      .cls-1 {
        fill: #fff;
        stroke-width: 0px;
      }
    </style>
  </defs>
  <path class="cls-1" d="M0,151.44c1.3-.02,2.6-.05,3.9-.05,136.58,0,273.17,0,409.75,0h4.29v-3.63c0-48.05,0-96.1,0-144.15,0-1.21.03-2.41.05-3.62.19.84.53,1.67.53,2.51.03,49.83.02,99.66.02,149.49-138.68,0-277.36,0-416.05-.02-.84,0-1.67-.35-2.51-.53Z"/>
  <path class="cls-1" d="M61.59,88.86v-35.2c-.19-.02-.39-.04-.58-.06-1.15,6.04-2.3,12.08-3.44,18.13-.94,5.01-1.98,10-2.74,15.03-.3,1.98-1.18,2.36-2.94,2.32-4.46-.09-8.93-.12-13.38.01-1.92.06-2.53-.7-2.84-2.46-2.02-11.28-4.15-22.54-6.64-33.78v35.94h-8.55v-39.26h17.5c2.33,12.41,4.67,24.89,7,37.36.2,0,.39-.01.59-.02,2.32-12.39,4.64-24.79,6.98-37.32h17.53v39.3h-8.48Z"/>
  <path class="cls-1" d="M107.91,88.9h-7.7c-.16-.93-.31-1.78-.46-2.68-7.41,4.81-18,4.22-22.93-1.2-4.89-5.36-5.03-17.08-.43-22.85,3.63-4.56,15.39-7.5,23.41-1.71.12-.85.23-1.61.35-2.48h7.77v30.93ZM90.68,65c-6.08-.04-9.61,3.06-9.57,8.38.04,5.27,3.46,8.36,9.31,8.4,5.91.04,9.42-2.97,9.5-8.15.08-5.57-3.15-8.59-9.24-8.63Z"/>
  <path class="cls-1" d="M159.72,89.22c-.79-.08-1.24-.16-1.7-.17q-6.38-.2-8.22-6.19c-2.51-8.22-5-16.44-7.56-24.87h8.38c3.04,9.97,6.09,19.96,9.33,30.55,1.07-3.42,1.99-6.29,2.87-9.16,1.97-6.46,3.97-12.92,5.84-19.41.47-1.62,1.17-2.28,2.88-2.16,1.93.14,3.87.03,6.18.03-.93,3.13-1.74,5.95-2.59,8.75-3.12,10.27-6.35,20.52-9.33,30.83-.68,2.34-1.74,3.14-4.05,2.88-1.55-.17-3.14-.03-5.2-.03,1.09-3.76,2.09-7.25,3.19-11.05Z"/>
  <path class="cls-1" d="M119.23,88.94h-7.9v-30.93h7.66c.17.72.34,1.47.54,2.31,6.05-4.01,12.15-4.14,18.25-.78,3.55,1.96,5.8,5.27,6.03,9.2.38,6.63.1,13.29.1,20.13h-7.76c0-4.96,0-9.84,0-14.72,0-7.44-5.16-11.07-12.28-8.65-2.93.99-4.48,2.95-4.57,6.26-.12,4.63-.06,9.27-.07,13.9,0,1,0,2,0,3.28Z"/>
  <path class="cls-1" d="M371.56,88.93h-2.66v-5.15c-3.77,4.57-8.59,5.99-14.03,5.77-4.28-.17-8.31-1.24-11.34-4.53-5.49-5.94-5.13-18.57.46-23.82,4.93-4.62,18.28-6.56,24.77,2.38v-5.58h2.81v30.93ZM342.61,71.62c.07,10.6,3.49,14.61,12.27,14.91,7.35.25,12.94-1.75,13.74-11.29.22-2.69-.26-5.57-1.04-8.17-.52-1.73-1.84-3.61-3.35-4.57-5.17-3.28-10.77-3.23-16.19-.65-4.69,2.24-5.38,6.7-5.43,9.77Z"/>
  <path class="cls-1" d="M217.82,63.31c-.83-.56-2.18-.96-2.4-1.7-2.54-8.81-10.35-10.71-17.4-10.14-9.19.73-14.06,6.02-14.33,15.28-.08,2.85.05,5.77.57,8.57,1.1,5.92,4.55,9.77,10.66,11.05,4.31.9,8.53.62,12.62-.87,3.93-1.43,6.4-4.4,7.56-8.35.49-1.68,1.25-2.38,2.96-1.76.27,4.5-3.62,9.96-8.92,12.25-6.2,2.68-12.52,2.58-18.69-.01-4.27-1.79-7.33-5.18-8.28-9.57-.97-4.54-1.69-9.44-1.04-13.98,1.76-12.27,11.51-16.81,23.41-14.84,7.73,1.28,12.4,6.05,13.28,14.07Z"/>
  <path class="cls-1" d="M252.47,73.54c.03,10.06-6.07,16.12-16.17,16.05-10.07-.06-15.83-5.99-15.88-16.35-.04-9.83,5.79-15.91,15.31-15.95,10.89-.04,16.71,5.61,16.74,16.24ZM249.51,74.7c-.11-9.17-3.02-13.1-9.68-14.34-9.01-1.67-15.46,2.32-16.33,10.45-.51,4.84-.42,9.96,4,13.19,4.99,3.65,10.76,3.44,16.17,1.1,4.91-2.12,5.84-6.8,5.84-10.41Z"/>
  <path class="cls-1" d="M411.32,66.07c-1.86.67-3.11.49-3.9-1.42-2.24-5.44-12.87-5.47-16.03-2.37-2.15,2.1-1.91,5.37.88,6.74,2.47,1.21,5.23,1.85,7.85,2.76,2.8.97,5.78,1.6,8.34,3.01,5.56,3.07,5.54,9.6-.06,12.61-5.99,3.22-12.25,3.03-18.04-.48-2.05-1.25-3.39-3.67-5.43-5.99,2.43-.72,3.51-.84,4.67.96,1.03,1.59,2.77,3.06,4.53,3.76,4.01,1.59,8.29,1.53,12.16-.43,1.41-.72,3.01-2.67,3.02-4.08.02-1.39-1.57-3.33-2.96-4.08-2.24-1.21-4.93-1.53-7.37-2.41-3.12-1.12-6.41-2.02-9.19-3.73-3.55-2.19-3.94-6.94-1.07-9.93,3.8-3.97,8.67-4.24,13.72-3.22,4.62.93,7.42,3.85,8.88,8.31Z"/>
  <path class="cls-1" d="M286.53,76.93c-1.05,8.28-7.91,13.32-16.92,12.59-10.16-.83-15-6.7-14.65-17.77.28-8.66,6.2-14.32,15.11-14.46,9.64-.14,15.86,4.62,16.38,13.3-1.21-.71-2.53-1.01-2.84-1.74-3.07-7.27-8.29-10.06-16.19-8.44-6.21,1.27-9.22,4.88-9.56,11.21-.69,12.92,6.83,16.39,17.73,14.39,4.01-.74,6.55-3.29,7.75-7.17q.66-2.14,3.18-1.9Z"/>
  <path class="cls-1" d="M312.21,58.41c-4,4.47-7.99,8.95-12.11,13.55,4.48,5.57,8.88,11.03,13.41,16.66-2.02.86-3.27.41-4.45-1.1-3.48-4.45-7.07-8.83-10.81-13.49-2.01,2.19-4.33,4.05-5.69,6.45-.94,1.66-.68,4.08-.67,6.16,0,1.91-.47,2.87-2.78,2.18v-39.13c1.87-.65,2.79-.29,2.77,2.02-.08,8.15-.03,16.3-.03,25,.91-.86,1.5-1.36,2.02-1.92,4.62-5.08,9.16-10.23,13.87-15.22.98-1.04,2.59-1.5,3.91-2.23.19.36.38.71.57,1.07Z"/>
  <path class="cls-1" d="M320.13,60.91q-4.94-1.02-4.75-2.93c1.52-.08,3.06-.16,4.81-.25v-8.07h2.92v8.08h15.61c.89,2.05.33,2.81-1.6,2.79-4.53-.04-9.07-.01-13.84-.01,0,7.49-.09,14.69.05,21.89.05,2.49,1.73,3.81,4.24,3.85,3.07.06,6.14-.05,9.19.13.83.05,1.6.89,2.4,1.36-.84.44-1.67,1.22-2.52,1.25-3.34.1-6.71.18-10.02-.14-4.46-.43-6.22-2.44-6.3-6.92-.11-6.21-.05-12.42-.07-18.63,0-.82-.08-1.63-.12-2.4Z"/>
  <path class="cls-1" d="M383.72,88.87h-2.63v-39.29h2.63v39.29Z"/>
  <path class="cls-1" d="M374.8,58.01h2.76v30.81h-2.76v-30.81Z"/>
</svg>